<?xml version="1.0" encoding="utf-8"?>
<!-- Generator: Adobe Illustrator 17.1.0, SVG Export Plug-In . SVG Version: 6.00 Build 0)  -->
<!DOCTYPE svg PUBLIC "-//W3C//DTD SVG 1.1//EN" "http://www.w3.org/Graphics/SVG/1.1/DTD/svg11.dtd">
<svg version="1.1" id="Layer_1" xmlns="http://www.w3.org/2000/svg" xmlns:xlink="http://www.w3.org/1999/xlink" x="0px" y="0px"
	 viewBox="0 0 425.2 141.7" enable-background="new 0 0 425.2 141.7" xml:space="preserve">
<g>
	<g>
		<path fill="#FFFFFF" d="M397.9,81.2V58.3h27.3V46.5h-27.3V22.1h-12.2v59.1c0,21.1,17.7,38.3,39.5,38.3v-11.8
			C410.1,107.7,397.9,95.8,397.9,81.2z M343.4,57.3V46.7h-12.2v72.4h12.2V84.9c0-14.6,12.3-26.5,27.3-26.5h4.7V46.5h-4.7
			C360.1,46.5,350.5,50.7,343.4,57.3z M307.1,55.3c-7.1-6.6-16.7-10.8-27.3-10.8c-21.8,0-39.5,17.2-39.5,38.3
			c0,21.1,17.7,38.3,39.5,38.3c10.6,0,20.2-4.1,27.3-10.8v8.7h12.2V46.7h-12.2V55.3z M279.7,109.4c-15.1,0-27.3-11.9-27.3-26.5
			c0-14.6,12.3-26.5,27.3-26.5c15.1,0,27.3,11.9,27.3,26.5C307.1,97.5,294.8,109.4,279.7,109.4z M230,46.5l-26.2,54.7l-26.2-54.7
			h-13.4l34.7,72.5h9.8l34.7-72.5H230z M66.8,55.3c-7.1-6.6-16.7-10.8-27.3-10.8C17.7,44.6,0,61.7,0,82.9
			c0,21.1,17.7,38.3,39.5,38.3c10.6,0,20.2-4.1,27.3-10.8v8.6h12.2v-97H66.8V55.3z M39.5,109.4c-15.1,0-27.3-11.9-27.3-26.5
			c0-14.6,12.3-26.5,27.3-26.5c15.1,0,27.3,11.9,27.3,26.5C66.8,97.5,54.5,109.4,39.5,109.4z M127.5,44.6
			c-21.8,0-39.5,17.2-39.5,38.3c0,21.1,17.7,38.3,39.5,38.3c15.4,0,28.7-8.7,35.2-21.3h-14.4c-5,5.8-12.4,9.5-20.8,9.5
			c-13,0-23.9-8.8-26.6-20.6H167v-5.9C167,61.7,149.3,44.6,127.5,44.6z M100.9,77c2.8-11.8,13.7-20.6,26.6-20.6
			c13,0,23.9,8.8,26.6,20.6H100.9z"/>
	</g>
</g>
</svg>
